<?xml version="1.0" encoding="UTF-8"?>
<!DOCTYPE svg PUBLIC "-//W3C//DTD SVG 1.1//EN" "http://www.w3.org/Graphics/SVG/1.1/DTD/svg11.dtd">
<!-- Creator: CorelDRAW X8 -->
<svg xmlns="http://www.w3.org/2000/svg" xml:space="preserve" width="20mm" height="20mm" version="1.1" style="shape-rendering:geometricPrecision; text-rendering:geometricPrecision; image-rendering:optimizeQuality; fill-rule:evenodd; clip-rule:evenodd"
viewBox="0 0 2000 2000"
 xmlns:xlink="http://www.w3.org/1999/xlink">
 <defs>
  <style type="text/css">
   <![CDATA[
    .str1 {stroke:#0041FF;stroke-width:16.93}
    .str0 {stroke:#0041FF;stroke-width:7.62}
    .fil0 {fill:#0041FF}
    .fil1 {fill:#E7E7E7}
   ]]>
  </style>
 </defs>
 <g id="Слой_x0020_1">
  <metadata id="CorelCorpID_0Corel-Layer"/>
  <path class="fil0 str0" d="M872 1359c24,2 56,0 81,0 53,0 44,7 50,-31 8,-47 16,-93 24,-140 8,-48 16,-94 23,-141 6,-48 10,-100 18,-147 -3,26 46,450 50,457 5,4 -3,0 4,2l95 0c6,-7 135,-300 150,-335 16,-36 29,-79 45,-114 -2,29 -18,78 -24,109 -8,37 -57,322 -57,340l157 0 74 -437 71 0c22,50 24,172 18,231 -23,192 -139,367 -299,464 -213,128 -478,137 -697,6 -30,-18 -62,-43 -75,-51 8,-12 13,-7 20,-17l-199 -70 23 183c8,-2 27,-17 37,-22 9,4 15,12 23,19 28,22 39,31 72,53 107,70 231,116 365,128 467,43 874,-312 865,-776 -2,-71 -14,-147 -36,-212 -3,-10 -20,-54 -21,-59l-376 1 -128 288 -35 -289 -225 0 -93 560z"/>
  <path class="fil0 str0" d="M363 1238c-21,-57 -24,-167 -16,-231 52,-431 520,-677 911,-511 41,17 134,66 159,95l-24 18 198 69 -22 -182c-10,2 -29,18 -41,24 -26,-15 -65,-66 -200,-127 -401,-184 -899,2 -1065,419 -67,171 -69,378 1,548 65,0 250,4 303,-9 38,-10 79,-37 97,-58 34,-41 88,-143 116,-194 18,-32 152,-278 167,-300l-154 0 -122 221 -69 -221 -176 1c8,23 20,48 29,71l118 290c7,17 13,22 4,36 -10,13 -13,17 -26,25 -34,22 -140,16 -188,16z"/>
  <path class="fil1 str1" d="M847 1333c24,3 56,1 81,1 53,0 44,7 50,-31 8,-47 16,-93 23,-141 8,-47 17,-93 23,-141 7,-48 10,-100 18,-146 -2,26 46,449 50,456 5,4 -3,0 5,2l95 1c6,-8 134,-300 149,-335 16,-37 29,-80 45,-115 -2,29 -17,78 -23,109 -8,37 -58,323 -57,341l156 0 74 -438 72 0c22,51 24,173 17,231 -22,193 -138,368 -299,465 -212,128 -478,136 -697,5 -29,-17 -61,-43 -75,-51 8,-11 13,-7 20,-17l-198 -69 22 182c9,-2 28,-16 37,-22 10,5 16,12 24,19 28,22 39,32 71,53 107,70 231,116 366,129 466,43 874,-313 864,-777 -1,-70 -14,-146 -35,-211 -4,-11 -21,-54 -21,-59l-377 0 -127 288 -35 -288 -226 0 -92 559z"/>
  <path class="fil1 str1" d="M338 1212c-21,-56 -24,-167 -17,-231 52,-430 521,-677 912,-511 40,18 134,67 158,96l-24 18 199 69 -23 -183c-10,3 -28,19 -41,24 -26,-14 -64,-65 -199,-127 -402,-184 -899,3 -1065,420 -68,170 -70,378 0,547 66,0 250,5 303,-9 39,-10 79,-36 97,-58 34,-40 89,-143 117,-194 17,-32 152,-277 167,-299l-155 0 -121 221 -69 -221 -176 0c7,24 19,48 28,72l118 290c7,16 14,22 4,35 -9,13 -12,18 -25,26 -35,22 -140,15 -188,15z"/>
 </g>
</svg>
